<?xml version="1.0" encoding="utf-8"?>
<!-- Generator: Adobe Illustrator 20.1.0, SVG Export Plug-In . SVG Version: 6.00 Build 0)  -->
<svg version="1.1" id="Layer_1" xmlns="http://www.w3.org/2000/svg" xmlns:xlink="http://www.w3.org/1999/xlink" x="0px" y="0px"
	 viewBox="0 0 321.2 603" style="enable-background:new 0 0 321.2 603;" xml:space="preserve">
<style type="text/css">
	.st0{fill:#1E324B;}
</style>
<g>
	<path class="st0" d="M32,62.3c-1.2,0.9-2.6,1.5-4.2,2c-1.6,0.4-3.2,0.7-4.8,0.7c-2.1,0-4.1-0.3-6-0.9c-1.9-0.6-3.6-1.5-5.1-2.7
		c-1.5-1.2-2.9-2.6-4-4.3c-1.1-1.5-1.9-3.3-2.6-5.2l-5.2,3c0.7,1.6,1.5,3.1,2.5,4.4c1.3,1.9,3,3.5,4.8,4.8c1.9,1.3,4.1,2.3,6.5,3
		c2.5,0.7,5.2,1,8.4,1c3.9,0,7.2-0.5,10.2-1.5c2.9-1,5.3-2.3,7.3-4c2-1.7,3.4-3.7,4.4-5.9c1-2.3,1.5-4.7,1.5-7.3
		c0-2.3-0.5-4.3-1.6-6.2c-0.7-1.2-1.5-2.3-2.5-3.4c-0.4-0.5-0.8-1-1.3-1.4c-1.6-1.6-3.4-3.1-5.5-4.5c-2.1-1.4-4.2-2.7-6.4-3.9
		c-2.1-1.2-4.2-2.4-6.2-3.7c-0.8-0.4-1.2-0.7-1.8-1c-2.2-1.2-4.1-2.4-5.9-3.7c-1.7-1.3-3.1-2.6-4.2-4c-1.1-1.4-1.6-3-1.6-4.7
		c0-1.2,0.3-2.4,0.8-3.6c0.5-1.2,1.7-2.5,2.7-3.5c1-0.9,2.3-1.7,3.8-2.2c1.5-0.6,3.3-0.9,5.4-0.9c2.3,0,4.6,0.3,6.4,1
		c1.8,0.6,2.6,0.9,4.9,2.5c0.6,0.4,1.2,1.1,1.7,1.6l0.7,0.9c0.4,0.6,0.8,1.1,1.2,1.8c1,1.6,1.8,3.3,2.4,5.2l0,0l4.4-2.5v0
		c-1-2.4-2.3-4.5-3.9-6.3c0,0-0.4-0.6-1-1.1C37.7,5,37,4.4,36.2,3.9C32.6,1.3,27.8,0,21.6,0c-3.4,0-6.5,0.4-9.1,1.3
		C9.9,2.2,7.7,3.4,5.9,5c-1.8,1.6-3.2,3.4-4.1,5.5c-0.9,2.1-1.4,4.4-1.4,6.9c0,2.5,0.5,4.7,1.5,6.6c1,1.9,2.4,3.6,4,5.2
		c1.7,1.5,3.6,2.9,5.7,4.2c2.1,1.3,4.3,2.5,6.6,3.6c2.2,1.2,4.4,2.3,6.6,3.4c2.1,1.1,4.1,2.4,5.7,3.7c1.7,1.3,3,2.7,4,4.3
		c1,1.5,1.8,4.2,1.6,6.5c-0.1,1.7-0.4,2.9-1.2,4.1C34.2,60.4,33.2,61.4,32,62.3z"/>
	<path class="st0" d="M189.9,122.5c0.6,0.2,1.4,0.3,2.4,0.4c1,0.1,2.1,0.2,3.2,0.4c1.1,0.1,2.3,0.2,3.6,0.3c1.2,0.1,2.4,0.1,3.6,0.1
		c2.6,0,5.3-0.3,7.8-1.1c2.6-0.7,4.9-1.8,6.9-3.2c2-1.5,3.6-3.3,4.9-5.5c1.2-2.2,1.8-4.8,1.8-7.7c0-3-0.6-5.6-1.9-7.9
		c-1.3-2.3-3-4.3-5.2-5.8c-2.2-1.6-4.8-2.8-7.8-3.6c-3-0.8-6.2-1.2-9.6-1.2H179v65.1h10.9V122.5z M189.9,90.5h7.8c2,0,3.9,0.3,5.7,1
		c1.8,0.7,3.3,1.6,4.6,2.9c1.3,1.2,2.3,2.8,3.1,4.5c0.8,1.8,1.3,4.6,1.3,6.8c0,1.9-0.5,4.7-1,6.3c-0.6,1.6-1.4,3.1-2.6,4.3
		c-1.2,1.2-2.6,2.2-4.4,2.9c-1.8,0.7-3.8,1-6.2,1c-1.5,0-2.9-0.2-4.3-0.5c-1.4-0.3-2.7-0.6-3.9-1L189.9,90.5z"/>
	<polygon class="st0" points="183.7,477.6 183.3,477.6 140.8,430.3 135.4,430.3 135.4,495.1 139.6,495.1 139.6,443.9 140,443.9 
		186,496.6 187.8,496.6 187.8,430.3 183.7,430.3 	"/>
	<path class="st0" d="M298,571.9h12.3v23.3c-2.1,2-3.6,2.9-6,3.7c-2.3,0.8-4.5,1.2-7.3,1.2l-0.8,0c-3.8,0-7.1-0.8-10-2.3
		c-2.9-1.6-5.5-4.1-7.4-6.9c-1.9-2.8-3.4-6.1-4.4-9.9c-1-3.8-1.5-8-1.5-12.5c0-4.4,0.5-8.5,1.5-12.3c1-3.7,2.4-6.9,4.4-9.6
		c1.9-2.7,4.3-5,7.2-6.5c2.9-1.5,6.5-2.4,10.3-2.4l0.3,0c7.7,0,13.6,2.6,19.7,9.3l3.3-3c-6.4-5.9-14.6-9.1-23.3-9.1H296
		c-3.4,0-6.6,0.4-9.7,1.2c-3.1,0.8-5.9,1.9-8.6,3.4c-2.6,1.5-5.1,3.2-7.2,5.3c-2.2,2-4,4.3-5.6,6.8c-1.5,2.5-2.7,5.2-3.6,8
		c-0.8,2.9-1.3,5.9-1.3,9c0,3.2,0.4,6.2,1.3,9.2c0.8,2.9,2,5.7,3.6,8.2c1.5,2.6,3.4,4.9,5.6,7c2.2,2.1,4.6,3.9,7.2,5.4
		c2.6,1.5,5.5,2.7,8.6,3.5c3.1,0.8,6.3,1.2,9.7,1.2l-0.1,0c2.3-0.1,4-0.2,6-0.4c2.7-0.3,5.2-0.7,7.4-1.2c2.2-0.5,4.3-1.2,6.2-2
		c1.9-0.8,3.8-1.7,5.8-2.7v-28.6H298V571.9z"/>
	<path class="st0" d="M323.2,218.4c0-43.9-17.8-83.6-46.6-112.4l3-3c-63.7-63.7-167.2-63.7-230.9,0
		c-51.8,51.8-61.4,130.1-28.9,191.8C7.2,317.6,0,343.7,0,371.5c0,43.9,17.8,83.6,46.6,112.4l-3,3c63.7,63.7,167.2,63.7,230.9,0
		c51.8-51.8,61.4-130.1,28.9-191.8C316,272.4,323.2,246.2,323.2,218.4z M6.8,218.4c0-86.7,70.6-157.3,157.3-157.3
		c86.7,0,157.3,70.6,157.3,157.3c0,27.1-6.9,52.6-19,74.9c-7.3-13.4-16.5-25.9-27.8-37.2l-3,3c-30.1-30.1-70-46.6-112.4-46.6
		c-23.8,0-46.3,5.3-66.6,14.7c-0.9-1.4-2-2.7-3.4-3.8c-2-1.5-4.4-2.7-7.4-3.5c-2.9-0.8-6.4-1.3-10.3-1.3H48.9v38.4
		c-9.8,9.4-18.4,20.1-25.6,31.7C12.8,267.5,6.8,243.7,6.8,218.4z M253.6,325v22.6c-25.4,17.7-56.3,28.1-89.5,28.1
		c-60.8,0-113.6-34.7-139.7-85.2c6.9-11.4,15.1-21.8,24.6-31.1v24.2h10.9V253h7.7l22.6,30.6h12.7L79.1,252c2.4-0.6,4.5-1.4,6.5-2.4
		c2-1,3.6-2.3,5-3.7c1.4-1.4,2.5-3,3.2-4.8c0.8-1.8,1.1-3.7,1.1-5.7c0-2.5-0.5-4.7-1.5-6.8c0,0,0,0,0-0.1
		c20-9.2,42.2-14.4,65.6-14.4c41.9,0,81.4,16.4,111.2,46.1c11.7,11.7,21.2,24.8,28.6,39c-9.2,15.2-20.8,28.7-34.4,40V325H253.6z
		 M59.8,221.3h9.6c2,0,3.8,0.3,5.5,1c1.7,0.7,3.3,1.6,4.5,2.7c1.2,1.2,2.2,2.6,2.9,4.2c0.3,0.6,0.5,1.6,0.7,2.6
		c-8.2,4.5-16,9.7-23.2,15.5L59.8,221.3z M83.3,233.7c0.1,1,0.1,2.1,0,3c-0.3,2.1-0.6,3.1-1.4,4.9c-0.9,1.7-2.1,3.2-3.6,4.4
		c-1.5,1.2-3.3,2.1-5.4,2.8c-2.1,0.7-4.3,1-6.8,1h-6.3v-0.1C67.2,243.6,75,238.3,83.3,233.7z M316.4,371.5
		c0,86.7-70.6,157.3-157.3,157.3c-86.7,0-157.3-70.6-157.3-157.3c0-27.1,6.9-52.6,19-74.9c7.3,13.4,16.5,25.9,27.8,37.2l3-3
		c28.8,28.8,68.6,46.6,112.4,46.6c33.2,0,64-10.2,89.5-27.6v40.2h10.9v-48.4c13.9-11.4,25.9-25,35.3-40.4
		C310.7,322.8,316.4,346.7,316.4,371.5z"/>
</g>
</svg>
