<svg id="Layer_1" data-name="Layer 1" xmlns="http://www.w3.org/2000/svg" viewBox="0 0 323.18 603.01"><defs><style>.cls-1{fill:#1c3149;}</style></defs><title>Artboard 1</title><path class="cls-1" d="M32,62.3a13.27,13.27,0,0,1-4.2,2,17.69,17.69,0,0,1-4.79.66A19.4,19.4,0,0,1,17,64a17.09,17.09,0,0,1-5.14-2.66,18.22,18.22,0,0,1-4-4.27,21.81,21.81,0,0,1-2.57-5.19L0,54.84a26.59,26.59,0,0,0,2.5,4.44,19.5,19.5,0,0,0,4.84,4.81,21.25,21.25,0,0,0,6.51,3,31.31,31.31,0,0,0,8.36,1,31.9,31.9,0,0,0,10.16-1.47,21.57,21.57,0,0,0,7.31-4,16.41,16.41,0,0,0,4.41-5.93,17.94,17.94,0,0,0,1.47-7.26A12.26,12.26,0,0,0,44,43.23a20.38,20.38,0,0,0-2.48-3.4c-.39-.49-.81-1-1.26-1.42a32.77,32.77,0,0,0-5.51-4.48Q31.6,31.88,28.35,30t-6.24-3.66c-.76-.44-1.17-.69-1.8-1a54.66,54.66,0,0,1-5.86-3.7,20,20,0,0,1-4.16-4A7.65,7.65,0,0,1,8.7,12.86a8.75,8.75,0,0,1,.77-3.57A11.5,11.5,0,0,1,16,3.59a15.35,15.35,0,0,1,5.39-.87,20.11,20.11,0,0,1,6.43,1A14.73,14.73,0,0,1,32.73,6.2a13.14,13.14,0,0,1,1.7,1.58l.71.88a20.58,20.58,0,0,1,1.22,1.76,25.79,25.79,0,0,1,2.41,5.21h0l4.41-2.49h0a22.33,22.33,0,0,0-3.85-6.31,9,9,0,0,0-1-1.14,18.81,18.81,0,0,0-2.14-1.8Q30.86,0,21.6,0a28.48,28.48,0,0,0-9.08,1.33A19.67,19.67,0,0,0,5.86,5a15.32,15.32,0,0,0-4.11,5.53,17.11,17.11,0,0,0-1.4,6.94,13.76,13.76,0,0,0,1.54,6.6,19.73,19.73,0,0,0,4,5.19,33.23,33.23,0,0,0,5.72,4.2q3.22,1.89,6.57,3.62t6.56,3.44a38.62,38.62,0,0,1,5.72,3.66,18.53,18.53,0,0,1,4,4.27A11.37,11.37,0,0,1,36.16,55,8.55,8.55,0,0,1,35,59.1,10.35,10.35,0,0,1,32,62.3Z"/><path class="cls-1" d="M189.93,122.51a18.85,18.85,0,0,0,2.36.42c1,.12,2.05.24,3.2.35s2.34.19,3.59.25,2.43.09,3.55.09a29.42,29.42,0,0,0,7.83-1.05,21,21,0,0,0,6.86-3.22,16.76,16.76,0,0,0,4.86-5.46,15.63,15.63,0,0,0,1.84-7.73,16,16,0,0,0-1.91-7.89,17.82,17.82,0,0,0-5.21-5.84,24.15,24.15,0,0,0-7.75-3.62,35.6,35.6,0,0,0-9.55-1.24H179v65.07h10.93Zm0-32h7.76a15.64,15.64,0,0,1,5.7,1A13.76,13.76,0,0,1,208,94.4,13.41,13.41,0,0,1,211.11,99a19.41,19.41,0,0,1,1.31,6.79,22.59,22.59,0,0,1-1,6.33,11.92,11.92,0,0,1-2.61,4.3,12.27,12.27,0,0,1-4.39,2.9,16.84,16.84,0,0,1-6.19,1,19.93,19.93,0,0,1-4.32-.47q-2.13-.47-3.95-1Z"/><polygon class="cls-1" points="183.72 477.64 183.29 477.64 140.84 430.3 135.38 430.3 135.38 495.08 139.63 495.08 139.63 443.93 140 443.93 185.99 496.62 187.8 496.62 187.8 430.3 183.72 430.3 183.72 477.64"/><path class="cls-1" d="M298,571.94H310.3v23.31a14.54,14.54,0,0,1-6,3.72,21.49,21.49,0,0,1-7.32,1.17h-.84a20.71,20.71,0,0,1-10-2.33,22.53,22.53,0,0,1-7.43-6.89,30.26,30.26,0,0,1-4.37-9.88,50,50,0,0,1-1.47-12.5,48,48,0,0,1,1.47-12.26,29,29,0,0,1,4.37-9.62,20.9,20.9,0,0,1,7.21-6.53,22.63,22.63,0,0,1,10.3-2.44h.34c7.7,0,13.61,2.64,19.7,9.29l3.32-3a34.25,34.25,0,0,0-23.29-9.1H296a38.48,38.48,0,0,0-9.67,1.19,36.16,36.16,0,0,0-15.83,8.64,32.53,32.53,0,0,0-5.56,6.8,33.21,33.21,0,0,0-3.55,8,31.63,31.63,0,0,0-1.26,9,33,33,0,0,0,1.26,9.16,34.53,34.53,0,0,0,3.55,8.22,33.51,33.51,0,0,0,5.56,7,35.59,35.59,0,0,0,7.24,5.4,36.57,36.57,0,0,0,8.59,3.48A37.18,37.18,0,0,0,296,603l-.05,0c2.3-.05,4-.17,6-.36a53.38,53.38,0,0,0,7.37-1.21,45.23,45.23,0,0,0,6.24-2,56.21,56.21,0,0,0,5.75-2.7V568.07H298Z"/><path class="cls-1" d="M323.18,218.44A158.61,158.61,0,0,0,276.54,106l3-3C215.87,39.37,112.3,39.37,48.65,103-3.18,154.85-12.8,233.13,19.78,294.79A158.8,158.8,0,0,0,46.64,483.95l-3,3c63.66,63.66,167.22,63.66,230.88,0,51.83-51.83,61.45-130.11,28.87-191.77A158.1,158.1,0,0,0,323.18,218.44Zm-316.41,0c0-86.74,70.56-157.3,157.3-157.3s157.29,70.57,157.29,157.3a156.31,156.31,0,0,1-19,74.87,162.56,162.56,0,0,0-27.84-37.25l-3,3a158.74,158.74,0,0,0-179.07-32,15.08,15.08,0,0,0-3.4-3.75,21.76,21.76,0,0,0-7.36-3.53,37.72,37.72,0,0,0-10.3-1.26H48.91V256.9a160.33,160.33,0,0,0-25.56,31.72A156.28,156.28,0,0,1,6.77,218.44ZM253.58,325v22.64A157,157,0,0,1,24.33,290.52a158.27,158.27,0,0,1,24.58-31.11V283.6H59.84V253h7.66l22.61,30.6h12.66L79.09,252a26.92,26.92,0,0,0,6.49-2.41,20.58,20.58,0,0,0,5-3.69,15.64,15.64,0,0,0,3.25-4.77A14.11,14.11,0,0,0,95,235.49a15.47,15.47,0,0,0-1.49-6.79l0-.07a156.94,156.94,0,0,1,176.8,31.72,158.19,158.19,0,0,1,28.6,39,158.51,158.51,0,0,1-34.37,40V325ZM59.8,221.31h9.62a15.07,15.07,0,0,1,5.51,1A13.65,13.65,0,0,1,79.47,225a12.41,12.41,0,0,1,2.85,4.2A15.17,15.17,0,0,1,83,231.8a159.4,159.4,0,0,0-23.2,15.5Zm23.53,12.42a12.64,12.64,0,0,1,0,3,13.54,13.54,0,0,1-1.43,4.85A12.85,12.85,0,0,1,78.35,246a17,17,0,0,1-5.4,2.78,22.58,22.58,0,0,1-6.8,1H59.84v-.13A158,158,0,0,1,83.33,233.72ZM316.41,371.51c0,86.74-70.56,157.3-157.3,157.3S1.82,458.25,1.82,371.51a156.34,156.34,0,0,1,19-74.87,162.66,162.66,0,0,0,27.84,37.24l3-3a158.81,158.81,0,0,0,202,19v40.2h10.93V341.72a160.28,160.28,0,0,0,35.33-40.43A156.25,156.25,0,0,1,316.41,371.51Z"/></svg>