<svg id="Layer_1" data-name="Layer 1" xmlns="http://www.w3.org/2000/svg" xmlns:xlink="http://www.w3.org/1999/xlink" viewBox="0 0 254.7 120.66"><defs><style>.cls-1{fill:none;}.cls-2{fill:#133579;}.cls-3{clip-path:url(#clip-path);}.cls-4{fill:#fff;}</style><clipPath id="clip-path"><rect class="cls-1" y="-0.08" width="254.7" height="120.82"/></clipPath></defs><title>Artboard 1</title><path class="cls-2" d="M139.29,24.48,117.58,2.77l-1.22.4L138,24.79l1.32-.3Z"/><path class="cls-2" d="M135.63,25.43,114.18,4,113,4.45l21.37,21.37,1.24-.39Z"/><path class="cls-2" d="M132.16,26.58,111,5.37l-1.1.53L131,27c.39-.15.77-.32,1.16-.47Z"/><path class="cls-2" d="M108.19,44.14,88.55,24.51c-.22.32-.43.65-.64,1l19.57,19.57c.23-.31.47-.61.71-.92Z"/><path class="cls-2" d="M161.84,23.95l-24-24c-.54,0-1.07,0-1.61,0h-.06l23.73,23.73q1,.13,1.92.29Z"/><path class="cls-2" d="M156.56,23.29,133.27,0l-1.54.09,23.09,23.09,1.74.11Z"/><path class="cls-2" d="M151.75,23.09,129,.33l-1.44.19,22.62,22.62c.53,0,1,0,1.58,0Z"/><path class="cls-2" d="M147.32,23.28,125,.93l-1.37.26,22.23,22.23,1.49-.13Z"/><path class="cls-2" d="M112.51,39.23,92.57,19.29c-.25.29-.5.59-.74.88l19.88,19.88.8-.82Z"/><path class="cls-2" d="M117.39,34.88,97.12,14.61l-.84.79,20.21,20.21.9-.73Z"/><path class="cls-2" d="M114.88,37,94.78,16.88l-.8.83,20,20,.85-.77Z"/><path class="cls-2" d="M167.81,25.3l-25-25L141,.12l24.61,24.61q1.11.27,2.2.57Z"/><path class="cls-2" d="M110.28,41.62,90.5,21.83c-.24.31-.47.61-.7.92l19.73,19.73c.25-.29.5-.58.76-.87Z"/><path class="cls-2" d="M125.78,29.43,105,8.62l-1,.64L124.73,30l1-.58Z"/><path class="cls-2" d="M120,32.92,99.6,12.47l-.89.74,20.38,20.38.95-.68Z"/><path class="cls-2" d="M128.89,27.92l-21-21-1,.58,20.94,20.94c.37-.17.73-.36,1.1-.53Z"/><path class="cls-2" d="M122.84,31.1,102.22,10.48l-.94.69,20.56,20.56,1-.63Z"/><path class="cls-2" d="M143.18,23.76l-22-22-1.28.34L141.77,24c.47-.08.94-.14,1.41-.21Z"/><path class="cls-2" d="M208.91,68c.44-.11.89-.2,1.34-.29l-5.14-5.14c.17.69.33,1.38.46,2.09L208.91,68Z"/><path class="cls-2" d="M206.63,68.74l-.5-.5c0,.22.06.43.09.65l.41-.15Z"/><path class="cls-2" d="M241.37,85l-3.65-3.65a22.07,22.07,0,0,1,1.07,2.7L241,86.29q.19-.63.35-1.27Z"/><path class="cls-2" d="M235.88,61.07l-2.32-2.32a27.2,27.2,0,0,0-5.2-3.58l11,11a25,25,0,0,0-3.48-5.11Z"/><path class="cls-2" d="M200.07,50l17.42,17.42c.63.05,1.25.14,1.86.24L197.08,45.35a49.31,49.31,0,0,1,3,4.61Z"/><polygon class="cls-2" points="239.63 87.89 239.65 88.03 239.76 88.03 239.63 87.89 239.63 87.89"/><path class="cls-2" d="M212.89,67.4c.51,0,1-.07,1.54-.09L202.91,55.79q.52,1.28,1,2.6l9,9Z"/><path class="cls-2" d="M241.24,71.05l-18-18q-1.09-.33-2.21-.59l20.66,20.66q-.2-1.08-.48-2.11Z"/><path class="cls-2" d="M242.14,76.56,188,22.45c-.41.11-.82.25-1.23.4l55.38,55.38c0-.56,0-1.12,0-1.67Z"/><path class="cls-2" d="M226.08,69.73,161.76,5.41q-1.4-.64-2.83-1.2l64.41,64.41a25.19,25.19,0,0,1,2.74,1.11Z"/><path class="cls-2" d="M242,81.08,173.3,12.34a60.05,60.05,0,0,0-5.16-3.54l73.72,73.72c.07-.47.13-1,.18-1.45Z"/><path class="cls-2" d="M185.76,34,154.32,2.59c-.74-.23-1.49-.42-2.25-.62L181,30.9A54.49,54.49,0,0,1,185.76,34Z"/><path class="cls-2" d="M175,27.85,148.2,1.08c-.66-.13-1.31-.25-2-.35l26,26q1.38.52,2.73,1.1Z"/><path class="cls-2" d="M220.54,50.35,192,21.8q-.75.05-1.48.15l29.77,29.77q.14-.68.25-1.37Z"/><path class="cls-2" d="M220.12,40.7,201.87,22.45q-1-.25-2-.42l20.71,20.71c-.11-.69-.25-1.37-.41-2Z"/><path class="cls-2" d="M220.84,46.64c0-.2,0-.41,0-.61L196.52,21.71l-.82,0h-.82l25.93,25.93c0-.33,0-.66,0-1Z"/><path class="cls-2" d="M216.1,32.07l-5.56-5.56a25.27,25.27,0,0,0-4-2.38l11.94,11.94a25,25,0,0,0-2.37-4Z"/><path class="cls-2" d="M52.09,98.79,24,70.73c-.41.12-.81.26-1.21.42L52.5,100.83c-.16-.67-.3-1.34-.41-2Z"/><path class="cls-2" d="M51.8,94.82c0-.3,0-.59,0-.88L28,70.12a15,15,0,0,0-1.52.1L51.81,95.53c0-.24,0-.47,0-.71Z"/><path class="cls-2" d="M52.38,89.86,33.57,71a15.64,15.64,0,0,0-2.26-.63L52.12,91.23c.07-.46.16-.92.25-1.37Z"/><path class="cls-2" d="M5.75,103.22,1.15,98.62a10.33,10.33,0,0,0,4.61,4.61Z"/><g class="cls-3"><path class="cls-2" d="M.68,90.54l13.74,13.74H16L1.22,89.46a8.9,8.9,0,0,0-.54,1.08Z"/><path class="cls-2" d="M0,94.07c0,.15,0,.29,0,.44l9.74,9.74.45,0h1.2L.06,92.91A8.79,8.79,0,0,0,0,94.07Z"/></g><path class="cls-2" d="M53.43,86.29,35,67.84c-.09.45-.18.91-.25,1.37L53,87.51c.13-.41.26-.82.41-1.21Z"/><path class="cls-2" d="M56.74,80.38,37.2,60.84c-.17.38-.33.76-.48,1.15L56.07,81.33c.22-.32.44-.64.67-1Z"/><path class="cls-2" d="M54.92,83.17l-19-19c-.13.41-.26.83-.37,1.25L54.35,84.23c.18-.36.38-.7.58-1.05Z"/><path class="cls-2" d="M12.67,84h-.12l20.32,20.32H34.5L12.93,82.71c-.1.41-.19.83-.26,1.25Z"/><path class="cls-2" d="M17.28,74.85l29.43,29.43h1.63L18.11,74c-.29.25-.56.52-.83.8Z"/><path class="cls-2" d="M15.22,77.4,42.1,104.28h1.63L15.9,76.45c-.23.31-.46.63-.67,1Z"/><path class="cls-2" d="M2.48,87.73,19,104.28h1.63L3.3,86.93a10.82,10.82,0,0,0-.82.81Z"/><path class="cls-2" d="M13.66,80.45l23.83,23.82h1.63l-25-25c-.18.37-.34.75-.5,1.13Z"/><path class="cls-2" d="M19.79,72.74l31.54,31.54H53L20.8,72.12c-.34.2-.68.4-1,.62Z"/><path class="cls-2" d="M5,85.65l18.62,18.62h1.63L6.07,85.08q-.54.26-1.05.57Z"/><path class="cls-2" d="M58.88,77.9,38.73,57.75c-.19.35-.39.7-.57,1.05L58.09,78.73c.25-.29.52-.56.79-.83Z"/><path class="cls-2" d="M8.25,84.27l20,20h1.62L9.6,84a11.61,11.61,0,0,0-1.35.28Z"/><path class="cls-2" d="M64,73.83,42.49,52.27c-.25.29-.49.59-.73.9L63,74.46c.33-.22.66-.43,1-.63Z"/><path class="cls-2" d="M80.17,48.42,71,39.24l-.63,0-1,0,9.94,9.94c.28-.26.57-.51.87-.76Z"/><path class="cls-2" d="M82.84,46.48,76,39.68c-.61-.1-1.24-.17-1.86-.23l7.68,7.68q.48-.33,1-.65Z"/><path class="cls-2" d="M75.8,53.28,62.58,40.06l-1.31.31L75.17,54.28q.3-.51.63-1Z"/><path class="cls-2" d="M77.82,50.69,66.55,39.42c-.49.05-1,.11-1.45.18l12,12q.36-.45.75-.88Z"/><path class="cls-2" d="M85.87,44.89,81,40.07c-.07.23-.15.46-.22.7-.31-.1-.64-.17-1-.25l4.89,4.89c.36-.18.73-.36,1.11-.52Z"/><path class="cls-2" d="M97.72,42.9,85.1,30.28c-.19.36-.36.72-.54,1.08L96,42.82c.57,0,1.14,0,1.7.07Z"/><path class="cls-2" d="M93.16,43,83.6,33.39c-.17.37-.34.75-.5,1.13l8.63,8.63c.47-.08.95-.14,1.43-.2Z"/><path class="cls-2" d="M89.27,43.68l-7-7c-.15.39-.29.79-.44,1.19L88,44.06q.62-.21,1.25-.38Z"/><path class="cls-2" d="M72.3,68.24,49.71,45.65l-.95.68,23.9,23.9c-.15-.65-.27-1.32-.37-2Z"/><path class="cls-2" d="M70.5,71.05l-23.4-23.4-.87.75,23,23c.41-.14.81-.28,1.23-.4Z"/><path class="cls-2" d="M67.1,72.27,44.68,49.86c-.27.27-.54.55-.8.83L66,72.78c.37-.18.74-.35,1.12-.51Z"/><path class="cls-2" d="M74.14,56.24,59,41l-1.2.42,15.9,15.9c.15-.38.32-.76.49-1.13Z"/><path class="cls-2" d="M103.41,44,86.76,27.33c-.2.34-.41.68-.61,1L101.21,43.4c.75.16,1.48.35,2.2.57Z"/><path class="cls-2" d="M72.89,59.6,55.62,42.33c-.37.16-.74.34-1.11.52L72.57,60.91c.09-.44.2-.87.32-1.3Z"/><path class="cls-2" d="M61.31,75.71,40.5,54.9c-.22.32-.44.64-.65,1L60.42,76.45c.29-.25.59-.5.89-.74Z"/><g class="cls-3"><path class="cls-2" d="M72.18,63.51,52.55,43.88l-1,.6L72.1,65.06q0-.78.08-1.54Z"/><path class="cls-2" d="M240.18,88l-.53,0c-1.29-11.31-11.91-20.75-24.1-20.75a24.77,24.77,0,0,0-9.33,1.6c-2.81-26.2-26.27-45.8-54.47-45.8a54.81,54.81,0,0,0-44.6,22.4,25.13,25.13,0,0,0-11.38-2.68c-13.07,0-23.67,10.12-23.67,22.6a21.67,21.67,0,0,0,.63,5.12C60.81,72.76,51.92,82.79,51.8,94.82c-.15,15.11,13.36,26,27.69,25.91,3,0,152.17,0,157.14,0,12.1,0,18.07-9.87,18.07-18A14.31,14.31,0,0,0,240.18,88"/></g><path class="cls-4" d="M102.67,85.87h-.25v0L100,80A8.77,8.77,0,0,1,99.6,79c-.08.23-.24.7-.38,1.05l-2.5,5.86h-.25v0L93,75.9h1.69v0l1.73,5.21c.13.41.27,1,.34,1.24.08-.27.25-.83.43-1.25l2.26-5.33h.24v0L102,81.13c.16.38.32.92.41,1.2v0a12.69,12.69,0,0,1,.36-1.24l1.73-5.24h1.57l0,.06-3.39,9.92"/><path class="cls-4" d="M109.05,85.77H107.5V79.64h1.56v6.13m-.78-7.43a1,1,0,1,1,1-1,1,1,0,0,1-1,1"/><path class="cls-4" d="M113.51,85.91c-.87,0-1.9-.39-1.9-2.23V80.95h-.91V79.64h.91V77.31h1.54v2.33h1.61v1.31h-1.61v2.76c0,.76.27.87.56.87a1,1,0,0,0,.71-.3l.05,0,.65,1.07,0,0a2.22,2.22,0,0,1-1.6.59"/><path class="cls-4" d="M118.95,85.91c-.87,0-1.9-.39-1.9-2.23V80.95h-.9V79.64h.9V77.31h1.54v2.33h1.61v1.31h-1.61v2.76c0,.76.27.87.56.87a1.07,1.07,0,0,0,.71-.29l.07-.05.64,1.07,0,0a2.22,2.22,0,0,1-1.6.59"/><path class="cls-4" d="M134.91,86a3.21,3.21,0,0,1,0-6.39,2.3,2.3,0,0,1,2.07,1.08V75.4h1.55V85.87h-1.55l0-1A2.31,2.31,0,0,1,134.91,86m.37-5a1.63,1.63,0,0,0-1.67,1.8,1.65,1.65,0,0,0,1.67,1.84A1.67,1.67,0,0,0,137,82.79a1.65,1.65,0,0,0-1.71-1.8"/><path class="cls-4" d="M159.15,85.91h-.25v0l-2.43-5.83A8.79,8.79,0,0,1,156.1,79v0c-.08.23-.24.7-.39,1l-2.5,5.86H153v0l-3.43-9.95h1.69v0l1.73,5.21c.13.4.27,1,.34,1.24.08-.27.26-.83.43-1.24L156,75.83h.25v0l2.25,5.31c.16.39.33.93.41,1.22v0c.06-.28.21-.85.35-1.24L161,75.94h1.58l0,.06-3.39,9.92"/><path class="cls-4" d="M165.54,85.81H164V79.68h1.55v6.13m-.77-7.43a1,1,0,0,1-1-1,1,1,0,0,1,2,0,1,1,0,0,1-1,1"/><path class="cls-4" d="M170,86c-.87,0-1.9-.39-1.9-2.24V81h-.91V79.68h.91V77.35h1.53v2.34h1.62V81h-1.62v2.77c0,.76.29.86.56.86a1.08,1.08,0,0,0,.73-.3l0,0,0,0,.62,1,0,0A2.22,2.22,0,0,1,170,86"/><path class="cls-4" d="M178.82,85.81h-1.54V82.3c0-.86-.42-1.32-1.21-1.32a1.41,1.41,0,0,0-1.53,1.51v3.33H173V75.33h1.54v5.3a2.23,2.23,0,0,1,2-1.08c1.4,0,2.3,1,2.3,2.64v3.62"/><path class="cls-4" d="M98.28,102.22a5.22,5.22,0,1,1,0-10.43,4.57,4.57,0,0,1,4.06,2l0,0,0,0-1.23.89,0,0a3.15,3.15,0,0,0-2.79-1.43,3.72,3.72,0,0,0,0,7.44,3.33,3.33,0,0,0,2.93-1.57l0,0,0,0,1.24.87,0,0a4.77,4.77,0,0,1-4.21,2.17"/><path class="cls-4" d="M107.25,102.22a3.29,3.29,0,1,1,0-6.58,3.29,3.29,0,1,1,0,6.58m0-5.19a1.91,1.91,0,1,0,1.77,1.9,1.72,1.72,0,0,0-1.77-1.9"/><path class="cls-4" d="M118.43,102.08h-1.59V98.46c0-.91-.42-1.37-1.25-1.37A1.45,1.45,0,0,0,114,98.65v3.43h-1.58V95.76H114v0l0,1a2.31,2.31,0,0,1,2.06-1.15c1.46,0,2.37,1,2.37,2.71v3.73"/><path class="cls-4" d="M122.84,102.23c-.89,0-2-.4-2-2.3V97.11H120V95.76h.93v-2.4h1.58v2.4h1.67v1.36h-1.67V100c0,.79.28.89.59.89a1.09,1.09,0,0,0,.73-.3l.06,0,0,0,.65,1,0,0a2.29,2.29,0,0,1-1.65.61"/><path class="cls-4" d="M143.78,102.08h-1.59V98.39c0-.9-.33-1.29-1.12-1.29s-1.36.54-1.36,1.53v3.45h-1.58V98.39c0-.9-.33-1.29-1.12-1.29s-1.36.54-1.36,1.53v3.45h-1.58V95.76h1.58v0l0,.9a2,2,0,0,1,1.8-1.07,1.88,1.88,0,0,1,1.83,1.14,2.55,2.55,0,0,1,2.14-1.14,2.32,2.32,0,0,1,2.38,2.6v3.84"/><path class="cls-4" d="M147.43,105.23h-1.6V95.76h1.6v0l0,1a2.41,2.41,0,0,1,2.16-1.15,3.05,3.05,0,0,1,2.94,3.27,3.11,3.11,0,0,1-3,3.31,2.36,2.36,0,0,1-2.1-1.08v4.09m1.71-8.17a1.88,1.88,0,1,0,1.73,1.85,1.68,1.68,0,0,0-1.73-1.85"/><path class="cls-4" d="M157.4,102.22a3.29,3.29,0,1,1,0-6.58,3.29,3.29,0,1,1,0,6.58m0-5.19a1.91,1.91,0,1,0,1.77,1.9A1.74,1.74,0,0,0,157.4,97"/><path class="cls-4" d="M164.18,102.08H162.6V95.76h1.59v1a1.88,1.88,0,0,1,1.76-1.13,2,2,0,0,1,1,.27l0,0-.54,1.43,0,0a1.63,1.63,0,0,0-.79-.2c-1,0-1.46.61-1.46,1.87v3.07"/><path class="cls-4" d="M170.1,102.22c-1.42,0-2.27-.76-2.27-2s.91-1.89,2.49-1.91H172c0-.9-.4-1.32-1.2-1.32a2,2,0,0,0-1.6.73l0,0-.92-.94,0,0a3.17,3.17,0,0,1,2.64-1.12,2.48,2.48,0,0,1,2.66,2.73v3.72H172v0l0-.74a2.19,2.19,0,0,1-1.92.92m.3-2.81c-.48,0-1.05.13-1.05.75s.63.78,1.16.78c.87,0,1.47-.44,1.47-1.08v-.45H170.4"/><path class="cls-4" d="M177.2,102.08h-1.59V95.76h1.59v0l0,1A1.89,1.89,0,0,1,179,95.64a1.94,1.94,0,0,1,1,.27l0,0v0l-.52,1.4,0,0a1.63,1.63,0,0,0-.8-.2c-1,0-1.45.63-1.45,1.87v3.07"/><path class="cls-4" d="M183.38,105.23h-1.65l0-.06,1.62-3.7-2.58-5.72h1.76v0l1.31,3.12a7.59,7.59,0,0,1,.31,1.08,5.62,5.62,0,0,1,.3-1.08l1.35-3.15h1.64l0,.06-4.08,9.41"/><path class="cls-4" d="M201.07,102.08h-1.72v0l-.73-1.82h-4.23l-.73,1.84H192l4.35-10.28h.24v0l4.44,10.25m-4.6-7.26c-.08.28-.27.9-.45,1.34L195,98.85H198l-1.08-2.69c-.17-.42-.38-1.05-.46-1.34"/><path class="cls-4" d="M204.23,102.08h-1.59V95.76h1.59v1A1.89,1.89,0,0,1,206,95.64a2,2,0,0,1,1,.27l0,0v0l-.53,1.4,0,0a1.6,1.6,0,0,0-.79-.2c-1,0-1.46.63-1.46,1.87v3.07"/><path class="cls-4" d="M210.91,102.23c-.89,0-2-.4-2-2.3V97.11H208V95.76H209v-2.4h1.59v2.4h1.67v1.36h-1.67V100c0,.79.28.89.58.89a1.07,1.07,0,0,0,.74-.3l.06,0,0,0,.65,1,0,0a2.29,2.29,0,0,1-1.65.61"/><path class="cls-4" d="M125.11,85.9a3.2,3.2,0,1,1-.19-6.39,3.07,3.07,0,0,1,2.28.9,3.72,3.72,0,0,1,.89,2.79v0h-4.86a1.7,1.7,0,0,0,1.85,1.35,2.46,2.46,0,0,0,1.7-.63l0,0,.9.95,0,0a3.39,3.39,0,0,1-2.57,1m-.17-5.17a1.69,1.69,0,0,0-1.8,1.46v.05h3.5v0a1.57,1.57,0,0,0-1.68-1.46"/><path class="cls-4" d="M143.65,86a3.2,3.2,0,1,1-.19-6.39,3.06,3.06,0,0,1,2.28.9,3.73,3.73,0,0,1,.89,2.79v0h-4.86a1.7,1.7,0,0,0,1.85,1.35,2.46,2.46,0,0,0,1.7-.63l0,0,.9.95,0,0a3.4,3.4,0,0,1-2.58,1m-.17-5.17a1.69,1.69,0,0,0-1.8,1.46v.05h3.5v0a1.57,1.57,0,0,0-1.68-1.46"/><path class="cls-4" d="M129.09,102.23a3.2,3.2,0,1,1-.19-6.39,3.07,3.07,0,0,1,2.28.9,3.73,3.73,0,0,1,.89,2.79v0h-4.86a1.71,1.71,0,0,0,1.86,1.35,2.47,2.47,0,0,0,1.7-.63l0,0,.9.95,0,0a3.39,3.39,0,0,1-2.57,1m-.17-5.17a1.69,1.69,0,0,0-1.8,1.46v.05h3.5v0a1.57,1.57,0,0,0-1.68-1.46"/></svg>